# xmcd CD database file
#
# Track frame offsets:
#	150
#	15848
#	34063
#	55353
#	71992
#	91140
#	106571
#	125347
#	156319
#	175117
#	190015
#	204300
#	224824
#	244228
#
# Disc length: 3515 seconds
#
# Revision: 0
# Processed by: cddbd v1.5.2PL0 Copyright (c) Steve Scherf et al.
# Submitted via: jetAudio 7
#
DISCID=bc0db90e
DTITLE=Dr John - Tribal
DYEAR=1900
DGENRE=Swamp Blues
TTITLE0=Feel Good Music
TTITLE1=Lissen At Our Prayer
TTITLE2=Big Gap
TTITLE3=Change Of Heart
TTITLE4=When I'm Right (I'm Wrong)
TTITLE5=Jinky Jinx
TTITLE6=Manoovas
TTITLE7=Tribal
TTITLE8=Music Came
TTITLE9=Them
TTITLE10=Only In America
TTITLE11=What's Wit Dat
TTITLE12=Potnah
TTITLE13=A Place In The Sun
EXTD=
EXTT0=
EXTT1=
EXTT2=
EXTT3=
EXTT4=
EXTT5=
EXTT6=
EXTT7=
EXTT8=
EXTT9=
EXTT10=
EXTT11=
EXTT12=
EXTT13=
PLAYORDER=
